<svg xmlns="http://www.w3.org/2000/svg" xmlns:svg="http://www.w3.org/2000/svg" xmlns:xlink="http://www.w3.org/1999/xlink" version="1.0" height="585.0000429153442pt" width="605.0500059127808pt" viewBox="389.94999999999993 652 613.0500059127808 591.0000429153442" ><defs><style type="text/css">
            @font-face {
                font-family: 'noto_regular';
                src: url('https://app.creately.com/diagram/assets/fonts/noto/noto-regular.woff') format('woff'),
                     url('https://app.creately.com/diagram/assets/fonts/noto/noto-regular.woff2') format('woff2');
                font-weight: normal;
                font-style: normal;
            }
        p {
            margin: 0;
        }
        </style></defs><defs><style>
            span{ display: inline-block; }
        </style></defs><g id="mny2jkj22j"><g transform="translate(394.94999999999993 655)"><path d="M 3.361388921737671,3.250000238418579 L 601.6886169910431,3.250000238418579 L 601.6886169910431,581.7500426769257 L 3.361388921737671,581.7500426769257 Z" fill="rgb(255, 255, 255)" stroke="rgb(137, 137, 137)" stroke-width="1.5" vector-effect="non-scaling-stroke"/></g></g><g id="1xuiu58pf5"><g transform="translate(880 730)"><ellipse cx="20.5" cy="10.125" rx="10.25" ry="10.125" fill="rgba(241,101,34,1)" stroke="#f16522" stroke-width="2" stroke-linecap="round" stroke-linejoin="round"/><path d="M 20.5,20.25 L 20.5,48.6 L 41,81 M 20.5,48.6 L 0,81 M 2.0500000000000003,30.375 L 38.95,30.375" fill="none" stroke="#f16522" stroke-width="2" stroke-linecap="round" stroke-linejoin="round"/><rect x="0" y="0" width="41" height="81" fill="rgba(255,255,255,0.01)" stroke="rgba(255,255,255,0.01)" stroke-width="2" stroke-linecap="round" stroke-linejoin="round"/></g><g transform="translate(871.5, 691) rotate(0, 29, 34)" width="58" height="34"><text text-decoration="none" x="7" fill="rgb(0, 0, 0)" font-size="9pt" font-family="Arial"  y="13">Internet&#160;</text><text text-decoration="none" x="1.5" fill="rgb(0, 0, 0)" font-size="9pt" font-family="Arial"  y="35">Customer</text><text text-decoration="none" x="56.5" fill="#4b4b4b" font-size="10pt" font-family="noto_regular"  y="35"></text></g></g><g id="20m2smjlrj"><g transform="translate(560 760)"><ellipse cx="20.5" cy="10.125" rx="10.25" ry="10.125" fill="rgba(241,101,34,1)" stroke="#f16522" stroke-width="2" stroke-linecap="round" stroke-linejoin="round"/><path d="M 20.5,20.25 L 20.5,48.6 L 41,81 M 20.5,48.6 L 0,81 M 2.0500000000000003,30.375 L 38.95,30.375" fill="none" stroke="#f16522" stroke-width="2" stroke-linecap="round" stroke-linejoin="round"/><rect x="0" y="0" width="41" height="81" fill="rgba(255,255,255,0.01)" stroke="rgba(255,255,255,0.01)" stroke-width="2" stroke-linecap="round" stroke-linejoin="round"/></g><g transform="translate(551.5, 736) rotate(0, 29, 19)" width="58" height="19"><text text-decoration="none" x="1.5" fill="rgb(0, 0, 0)" font-size="9pt" font-family="Arial"  y="17">Customer</text><text text-decoration="none" x="56.5" fill="#4b4b4b" font-size="10pt" font-family="noto_regular"  y="17"></text></g></g><g id="2jty3l18w6"><g><path d="M 880,760 L 600,790" fill="none" stroke="#898989" stroke-width="2" stroke-linecap="round" stroke-linejoin="round"/><path d="M 600,790 L 609.2587320167214,794.7909026469149 L 608.0336010949273,783.3563473768371 Z" fill="rgb(137,137,137)" stroke="#898989" stroke-width="2" stroke-linecap="round" stroke-linejoin="round"/></g></g><g id="1nmj9b0i57"><g transform="translate(420 875)"><ellipse cx="45.5" cy="30.5" rx="45.5" ry="30.5" fill="rgba(55,180,74,1)" stroke="#37b44a" stroke-width="2" stroke-linecap="round" stroke-linejoin="round"/></g><g transform="translate(428.5, 896) rotate(0, 37, 9.5)" width="74" height="19"><text text-decoration="none" x="2.5" fill="rgb(20, 19, 45)" font-size="9pt" font-family="Arial"  y="17">phone&#160;</text><text text-decoration="none" x="40.5" fill="rgb(20, 19, 45)" font-size="9pt" font-family="Arial"  y="17">order</text><text text-decoration="none" x="71.5" fill="#4b4b4b" font-size="10pt" font-family="noto_regular"  y="17"></text></g></g><g id="9sqsucdldl"><g><path d="M 560,790 L 465,875" fill="none" stroke="#898989" stroke-width="2" stroke-linecap="round" stroke-linejoin="round"/></g></g><g id="25if1e7qhd"><g transform="translate(675 875)"><ellipse cx="45.5" cy="30.5" rx="45.5" ry="30.5" fill="rgba(55,180,74,1)" stroke="#37b44a" stroke-width="2" stroke-linecap="round" stroke-linejoin="round"/></g><g transform="translate(678, 896) rotate(0, 42.5, 9.5)" width="85" height="19"><text text-decoration="none" x="3.5" fill="rgb(20, 19, 45)" font-size="9pt" font-family="Arial"  y="17">Internet&#160;</text><text text-decoration="none" x="50.5" fill="rgb(20, 19, 45)" font-size="9pt" font-family="Arial"  y="17">order</text><text text-decoration="none" x="81.5" fill="#4b4b4b" font-size="10pt" font-family="noto_regular"  y="17"></text></g></g><g id="dcjwraxnmz"><g><path d="M 880,760 L 760,890" fill="none" stroke="#898989" stroke-width="2" stroke-linecap="round" stroke-linejoin="round"/></g></g><g id="cp5rnairif"><g transform="translate(550 1050)"><ellipse cx="45.5" cy="30.5" rx="45.5" ry="30.5" fill="rgba(55,180,74,1)" stroke="#37b44a" stroke-width="2" stroke-linecap="round" stroke-linejoin="round"/></g><g transform="translate(561.5, 1071) rotate(0, 34, 9.5)" width="68" height="19"><text text-decoration="none" x="2" fill="rgb(20, 19, 45)" font-size="9pt" font-family="Arial"  y="17">place&#160;</text><text text-decoration="none" x="35" fill="rgb(20, 19, 45)" font-size="9pt" font-family="Arial"  y="17">order</text><text text-decoration="none" x="66" fill="#4b4b4b" font-size="10pt" font-family="noto_regular"  y="17"></text></g></g><g id="2tcpwxk366"><g><path d="M 720,935 L 620,1055" fill="none" stroke="#898989" stroke-width="2" stroke-linecap="round" stroke-linejoin="round"/><path d="M 620,1055 L 629.9840932243326,1052.0008752580936 L 621.1495485089628,1044.6387546619521 Z" fill="rgb(137,137,137)" stroke="#898989" stroke-width="2" stroke-linecap="round" stroke-linejoin="round"/></g></g><g id="78ehdy1kw1"><g><path d="M 465,935 L 575,1055" fill="none" stroke="#898989" stroke-width="2" stroke-linecap="round" stroke-linejoin="round"/><path d="M 575,1055 L 573.3627699712208,1044.7045473842797 L 564.8854973589123,1052.4753806122292 Z" fill="rgb(137,137,137)" stroke="#898989" stroke-width="2" stroke-linecap="round" stroke-linejoin="round"/></g></g><g id="8tldeg222p"><g transform="translate(880 990)"><ellipse cx="45.5" cy="30.5" rx="45.5" ry="30.5" fill="rgba(55,180,74,1)" stroke="#37b44a" stroke-width="2" stroke-linecap="round" stroke-linejoin="round"/></g><g transform="translate(902.5, 1003.5) rotate(0, 23, 17)" width="46" height="34"><text text-decoration="none" x="1.5" fill="rgb(20, 19, 45)" font-size="9pt" font-family="Arial"  y="13">request&#160;</text><text text-decoration="none" x="2.5" fill="rgb(20, 19, 45)" font-size="9pt" font-family="Arial"  y="35">catalog</text><text text-decoration="none" x="43.5" fill="#4b4b4b" font-size="10pt" font-family="noto_regular"  y="35"></text></g></g><g id="9sw20miiyh"><mask id="863dd" x="627" y="1007" width="266" height="86" maskUnits="userSpaceOnUse"><rect x="627" y="1007" width="266" height="86" fill="white" /><rect x="716" y="1037.5" width="88" height="25" fill="black" /><rect x="716" y="1037.5" width="88" height="25" fill="black" /><rect x="716" y="1037.5" width="88" height="25" fill="black" /><rect x="716" y="1037.5" width="88" height="25" fill="black" /><rect x="716" y="1037.5" width="88" height="25" fill="black" /><rect x="716" y="1037.5" width="88" height="25" fill="black" /><rect x="716" y="1037.5" width="88" height="25" fill="black" /></mask><g mask="url(#863dd)"><path d="M 880,1020 L 640,1080" fill="none" stroke="#898989" stroke-width="1.5" stroke-linecap="round" stroke-linejoin="round" stroke-dasharray="5 5"/><path d="M 648.3689631104102,1084.64294596879 Q 643.3921066438648,1079.1519733390337 640,1080 M 645.199463465049,1071.9649473873453 Q 643.3921066438648,1079.1519733390337 640,1080 M 640,1080 Z" fill="none" stroke="#898989" stroke-width="1.5" stroke-linecap="round" stroke-linejoin="round"/></g><g transform="translate(719, 1040.5)" width="82" height="19"><text text-decoration="none" x="8" fill="rgb(0, 0, 0)" font-size="9pt" font-family="Arial"  y="17">&#x3C;&#x3C;extend&#x3E;&#x3E;</text><text text-decoration="none" x="74" fill="#4b4b4b" font-size="10pt" font-family="noto_regular"  y="17"></text></g><g transform="translate(719, 1040.5)" width="82" height="19"><text text-decoration="none" x="8" fill="rgb(0, 0, 0)" font-size="9pt" font-family="Arial"  y="17">&#x3C;&#x3C;extend&#x3E;&#x3E;</text><text text-decoration="none" x="74" fill="#4b4b4b" font-size="10pt" font-family="noto_regular"  y="17"></text></g><g transform="translate(719, 1040.5)" width="82" height="19"><text text-decoration="none" x="8" fill="rgb(0, 0, 0)" font-size="9pt" font-family="Arial"  y="17">&#x3C;&#x3C;extend&#x3E;&#x3E;</text><text text-decoration="none" x="74" fill="#4b4b4b" font-size="10pt" font-family="noto_regular"  y="17"></text></g><g transform="translate(719, 1040.5)" width="82" height="19"><text text-decoration="none" x="8" fill="rgb(0, 0, 0)" font-size="9pt" font-family="Arial"  y="17">&#x3C;&#x3C;extend&#x3E;&#x3E;</text><text text-decoration="none" x="74" fill="#4b4b4b" font-size="10pt" font-family="noto_regular"  y="17"></text></g><g transform="translate(719, 1040.5)" width="82" height="19"><text text-decoration="none" x="8" fill="rgb(0, 0, 0)" font-size="9pt" font-family="Arial"  y="17">&#x3C;&#x3C;extend&#x3E;&#x3E;</text><text text-decoration="none" x="74" fill="#4b4b4b" font-size="10pt" font-family="noto_regular"  y="17"></text></g><g transform="translate(719, 1040.5)" width="82" height="19"><text text-decoration="none" x="8" fill="rgb(0, 0, 0)" font-size="9pt" font-family="Arial"  y="17">&#x3C;&#x3C;extend&#x3E;&#x3E;</text><text text-decoration="none" x="74" fill="#4b4b4b" font-size="10pt" font-family="noto_regular"  y="17"></text></g><g transform="translate(719, 1040.5)" width="82" height="19"><text text-decoration="none" x="8" fill="rgb(0, 0, 0)" font-size="9pt" font-family="Arial"  y="17">&#x3C;&#x3C;extend&#x3E;&#x3E;</text><text text-decoration="none" x="74" fill="#4b4b4b" font-size="10pt" font-family="noto_regular"  y="17"></text></g></g><g id="347315xcus"><g transform="translate(880 1135)"><ellipse cx="45.5" cy="30.5" rx="45.5" ry="30.5" fill="rgba(55,180,74,1)" stroke="#37b44a" stroke-width="2" stroke-linecap="round" stroke-linejoin="round"/></g><g transform="translate(881.5, 1148.5) rotate(0, 44, 17)" width="88" height="34"><text text-decoration="none" x="26" fill="rgb(20, 19, 45)" font-size="9pt" font-family="Arial"  y="13">supply&#160;</text><text text-decoration="none" x="3.5" fill="rgb(20, 19, 45)" font-size="9pt" font-family="Arial"  y="35">customer&#160;</text><text text-decoration="none" x="59.5" fill="rgb(20, 19, 45)" font-size="9pt" font-family="Arial"  y="35">data</text><text text-decoration="none" x="84.5" fill="#4b4b4b" font-size="10pt" font-family="noto_regular"  y="35"></text></g></g><g id="2ns80523bh"><mask id="8d118" x="627" y="1067" width="266" height="111" maskUnits="userSpaceOnUse"><rect x="627" y="1067" width="266" height="111" fill="white" /><rect x="715" y="1110" width="90" height="25" fill="black" /><rect x="715" y="1110" width="90" height="25" fill="black" /><rect x="715" y="1110" width="90" height="25" fill="black" /><rect x="715" y="1110" width="90" height="25" fill="black" /><rect x="715" y="1110" width="90" height="25" fill="black" /><rect x="715" y="1110" width="90" height="25" fill="black" /><rect x="715" y="1110" width="90" height="25" fill="black" /></mask><g mask="url(#8d118)"><path d="M 880,1165 L 640,1080" fill="none" stroke="#898989" stroke-width="1.5" stroke-linecap="round" stroke-linejoin="round" stroke-dasharray="5 5"/><path d="M 644.4104112001847,1088.4938073828994 Q 643.2958993886756,1081.1672977001558 640,1080 M 648.7731863545175,1076.1753834177243 Q 643.2958993886756,1081.1672977001558 640,1080 M 640,1080 Z" fill="none" stroke="#898989" stroke-width="1.5" stroke-linecap="round" stroke-linejoin="round"/></g><g transform="translate(718, 1113)" width="84" height="19"><text text-decoration="none" x="8" fill="rgb(0, 0, 0)" font-size="9pt" font-family="Arial"  y="17">&#x3C;&#x3C;include&#x3E;&#x3E;</text><text text-decoration="none" x="76" fill="#4b4b4b" font-size="10pt" font-family="noto_regular"  y="17"></text></g><g transform="translate(718, 1113)" width="84" height="19"><text text-decoration="none" x="8" fill="rgb(0, 0, 0)" font-size="9pt" font-family="Arial"  y="17">&#x3C;&#x3C;include&#x3E;&#x3E;</text><text text-decoration="none" x="76" fill="#4b4b4b" font-size="10pt" font-family="noto_regular"  y="17"></text></g><g transform="translate(718, 1113)" width="84" height="19"><text text-decoration="none" x="8" fill="rgb(0, 0, 0)" font-size="9pt" font-family="Arial"  y="17">&#x3C;&#x3C;include&#x3E;&#x3E;</text><text text-decoration="none" x="76" fill="#4b4b4b" font-size="10pt" font-family="noto_regular"  y="17"></text></g><g transform="translate(718, 1113)" width="84" height="19"><text text-decoration="none" x="8" fill="rgb(0, 0, 0)" font-size="9pt" font-family="Arial"  y="17">&#x3C;&#x3C;include&#x3E;&#x3E;</text><text text-decoration="none" x="76" fill="#4b4b4b" font-size="10pt" font-family="noto_regular"  y="17"></text></g><g transform="translate(718, 1113)" width="84" height="19"><text text-decoration="none" x="8" fill="rgb(0, 0, 0)" font-size="9pt" font-family="Arial"  y="17">&#x3C;&#x3C;include&#x3E;&#x3E;</text><text text-decoration="none" x="76" fill="#4b4b4b" font-size="10pt" font-family="noto_regular"  y="17"></text></g><g transform="translate(718, 1113)" width="84" height="19"><text text-decoration="none" x="8" fill="rgb(0, 0, 0)" font-size="9pt" font-family="Arial"  y="17">&#x3C;&#x3C;include&#x3E;&#x3E;</text><text text-decoration="none" x="76" fill="#4b4b4b" font-size="10pt" font-family="noto_regular"  y="17"></text></g><g transform="translate(718, 1113)" width="84" height="19"><text text-decoration="none" x="8" fill="rgb(0, 0, 0)" font-size="9pt" font-family="Arial"  y="17">&#x3C;&#x3C;include&#x3E;&#x3E;</text><text text-decoration="none" x="76" fill="#4b4b4b" font-size="10pt" font-family="noto_regular"  y="17"></text></g></g></svg>